<?xml version="1.0" encoding="UTF-8" standalone="no"?>
<svg
   width="454.15079"
   height="454.15079"
   class="plot"
   version="1.1"
   id="svg655"
   sodipodi:docname="icon.svg"
   inkscape:version="1.1.2 (0a00cf5339, 2022-02-04, custom)"
   xmlns:inkscape="http://www.inkscape.org/namespaces/inkscape"
   xmlns:sodipodi="http://sodipodi.sourceforge.net/DTD/sodipodi-0.dtd"
   xmlns="http://www.w3.org/2000/svg"
   xmlns:svg="http://www.w3.org/2000/svg">
  <defs
     id="defs659">
    <clipPath
       clipPathUnits="userSpaceOnUse"
       id="clipPath2686">
      <rect
         style="fill:none;stroke:#ff0000;stroke-width:4.92796;stroke-miterlimit:4;stroke-dasharray:none;stroke-dashoffset:0.87874;paint-order:stroke fill markers;stop-color:#000000"
         id="rect2688"
         width="433.92853"
         height="433.92853"
         x="196.07144"
         y="8" />
    </clipPath>
    <defs
       id="defs5">
      <clipPath
         id="clip">
        <rect
           width="720"
           height="471"
           x="0"
           y="-1"
           id="rect2" />
      </clipPath>
    </defs>
  </defs>
  <sodipodi:namedview
     id="namedview657"
     pagecolor="#ffffff"
     bordercolor="#666666"
     borderopacity="1.0"
     inkscape:pageshadow="2"
     inkscape:pageopacity="0.0"
     inkscape:pagecheckerboard="0"
     showgrid="false"
     inkscape:zoom="0.5"
     inkscape:cx="179"
     inkscape:cy="121"
     inkscape:window-width="1366"
     inkscape:window-height="750"
     inkscape:window-x="0"
     inkscape:window-y="18"
     inkscape:window-maximized="1"
     inkscape:current-layer="svg655"
     fit-margin-top="0"
     fit-margin-left="0"
     fit-margin-right="0"
     fit-margin-bottom="0" />
  <rect
     style="fill:#e8e8e8;fill-opacity:1;stroke:#000000;stroke-width:28.898;stroke-miterlimit:4;stroke-dasharray:none;stroke-dashoffset:28;stroke-opacity:1;paint-order:stroke fill markers;stop-color:#000000"
     id="rect4872-7"
     width="415.45319"
     height="415.45319"
     x="19.348795"
     y="19.348801"
     ry="37.756401"
     rx="37.756401" />
  <path
     style="fill:none;fill-opacity:1;stroke:#000000;stroke-width:38.6976;stroke-miterlimit:4;stroke-dasharray:77.3952, 38.6976;stroke-dashoffset:0;stroke-opacity:0.592327;paint-order:stroke fill markers;stop-color:#000000"
     d="M 108.08327,22.291832 V 448.73358"
     id="path5362" />
  <circle
     class="mouse-circle"
     stroke="#0000ff"
     stroke-width="2"
     fill="none"
     r="4"
     cx="108.09669"
     cy="382.34918"
     style="display:none;stroke-width:7.4;stroke-miterlimit:4;stroke-dasharray:none"
     id="circle81" />
  <circle
     class="mouse-circle"
     stroke="#ffa500"
     stroke-width="2"
     fill="none"
     r="4"
     cx="108.09669"
     cy="382.6174"
     style="display:none;stroke-width:7.4;stroke-miterlimit:4;stroke-dasharray:none"
     id="circle83" />
  <circle
     class="mouse-circle"
     stroke="#008000"
     stroke-width="2"
     fill="none"
     r="4"
     cx="108.09669"
     cy="382.58759"
     style="display:none;stroke-width:7.4;stroke-miterlimit:4;stroke-dasharray:none"
     id="circle85" />
  <circle
     class="mouse-circle"
     stroke="#ff0000"
     stroke-width="2"
     fill="none"
     r="4"
     cx="108.09669"
     cy="382.09479"
     style="display:none;stroke-width:7.4;stroke-miterlimit:4;stroke-dasharray:none"
     id="circle87" />
  <g
     id="g2360"
     clip-path="url(#clipPath2686)"
     transform="matrix(0.96743956,0,0,0.96743956,-175.08023,8.6936126)"
     style="stroke-width:50;stroke-miterlimit:4;stroke-dasharray:none">
    <line
       class="axhline"
       x1="0"
       x2="720"
       y1="484.23581"
       y2="484.23581"
       stroke="#808080"
       stroke-width="2"
       style="stroke-width:50;stroke-miterlimit:4;stroke-dasharray:none"
       id="line17" />
    <path
       class="data-path"
       fill="none"
       stroke="#0000ff"
       stroke-width="2.5"
       d="m 0,422.92878 3.2142857,-0.44471 3.2142857,-0.5185 3.2142857,-0.51843 3.2142859,-0.51837 3.214286,-0.51829 3.214285,-0.51821 3.214286,-0.51813 3.214286,-0.51803 3.214285,-0.51794 3.214286,-0.51784 3.214286,-0.51774 3.214286,-0.51764 3.214285,-0.51752 L 45,415.75001 l 3.214286,-0.51731 3.214285,-0.5172 3.214286,-0.51708 3.214286,-0.51697 3.214286,-0.51686 3.214285,-0.51674 3.214286,-0.51663 3.214286,-0.51652 3.214285,-0.51641 3.214286,-0.51629 3.214286,-0.51619 3.214286,-0.51608 3.214285,-0.51597 L 90,408.51789 l 3.214286,-0.51577 3.214285,-0.51566 3.214286,-0.51557 3.214283,-0.51547 3.21429,-0.51537 3.21428,-0.51528 3.21429,-0.51519 3.21429,-0.5151 3.21428,-0.51501 3.21429,-0.51493 3.21428,-0.51484 3.21429,-0.51477 3.21428,-0.51468 3.21429,-0.51461 3.21429,-0.51453 3.21428,-0.51446 3.21429,-0.51439 3.21428,-0.51431 3.21429,-0.51425 3.21428,-0.51419 3.21429,-0.51412 3.21429,-0.51406 3.21428,-0.51399 3.21429,-0.51394 3.21428,-0.51388 3.21429,-0.51382 3.21428,-0.51377 3.21429,-0.51372 3.21429,-0.51367 3.21428,-0.51361 3.21429,-0.51357 3.21428,-0.51351 3.21429,-0.51348 3.21428,-0.51344 3.21429,-0.5134 3.21429,-0.51335 3.21428,-0.51331 3.21429,-0.51327 3.21428,-0.51324 3.21429,-0.51319 3.21428,-0.51316 3.21429,-0.51312 3.21429,-0.5131 3.21428,-0.51305 3.21429,-0.51302 3.21428,-0.51299 3.21429,-0.51295 3.21428,-0.51293 3.21429,-0.51289 3.21429,-0.51286 3.21428,-0.51284 3.21429,-0.5128 3.21428,-0.87314 3.21429,-0.51339 3.21428,-0.51337 3.21429,-0.51333 3.21429,-0.5133 3.21428,-0.87586 3.21429,-0.51391 3.21428,-0.51388 3.21429,-0.51385 3.21428,-0.87851 3.21429,-0.51375 3.21429,-0.51371 3.21428,-0.88032 3.21429,-0.51433 3.21428,-0.8828 3.21429,-0.88517 3.21428,-0.51566 3.21429,-0.88772 3.21429,-0.51633 3.21428,-0.8903 3.21429,-0.51701 3.21428,-0.89292 3.21429,-0.89545 3.21428,-0.51849 3.21429,-0.89815 3.21429,-0.90076 3.21428,-0.52004 3.21429,-0.90355 3.21428,-0.90623 3.21429,-0.90897 3.21428,-0.91172 3.21429,-0.52349 3.21429,-0.9147 3.21428,-0.91757 3.21429,-0.52537 3.21428,-0.92067 3.21429,-0.52629 3.21428,-0.9238 3.21429,-0.52723 3.21429,-0.52715 3.21428,-0.92717 3.21429,-0.93021 3.21428,-0.5292 3.21429,-0.93351 3.21428,-0.53023 3.21429,-0.93687 3.21429,-0.94006 3.21428,-0.53246 3.21429,-0.94354 3.21428,-0.94686 3.21429,-0.53482 3.21428,-0.95045 3.21429,-0.95388 3.21429,-0.95736 3.21428,-0.53868 3.21429,-0.96116 3.21428,-0.96478 3.21429,-0.5414 3.21428,-0.96872 3.21429,-0.97245 3.21429,-0.97627 3.21428,-0.54587 3.21429,-0.98043 3.21428,-0.98439 3.21429,-0.9884 3.21428,-0.9925 3.21429,-0.55253 3.21429,-0.99701 3.21428,-1.00125 3.21429,-1.00559 3.21428,-1.00999 3.21429,-1.01448 3.21428,-1.01907 3.21429,-1.02373 3.21429,-1.02849 3.21428,-1.03334 3.21429,-1.03828 3.21428,-1.04334 3.21429,-1.04848 3.21428,-1.05372 3.21429,-1.53862 3.21429,-1.06953 3.21428,-1.56196 3.21429,-1.08626 3.21428,-1.58623 3.21429,-1.60234 3.21428,-1.61878 3.21429,-1.12867 3.21429,-2.15602 3.21428,-1.66989 3.21429,-1.68739 3.21428,-2.74993 3.21429,-2.78644 3.21428,-5.38917 3.21429,-5.65098 3.21429,-0.89876 3.21428,-0.89911 3.21429,-0.89945 3.21428,-0.8998 3.21429,-0.90016 3.21428,-0.9005 3.21429,-0.90084 3.21429,-0.9012 3.21428,-0.90154 3.21429,-0.90188 3.21428,-0.90223 3.21429,-0.90258 3.21428,-0.90291 3.21429,-0.90325 3.21429,-0.90359 3.21428,-0.90393 3.21429,-0.90427 3.21428,-0.9046 3.21429,-0.90494 3.21428,-0.90528 3.21429,-0.9056 3.21429,-0.90594 3.21428,-0.90627 3.21429,-0.9066 3.21428,-0.90693 3.21429,-0.90726 3.21428,-0.90758 3.21429,-0.90791 3.21429,-0.90823 3.21428,-0.90856 3.21429,-0.90887 3.21428,-0.9092 3.21429,-0.90951 3.21428,-0.90983 3.21429,-0.91015 3.21429,-0.91046 3.21428,-0.91077 3.21429,-0.91108 3.21428,-0.91139 3.21429,-0.9117 3.21428,-0.912 3.21429,-0.91231 3.21429,-0.91261 3.21428,-0.91292 3.21429,-0.91321 3.21428,-0.91351 3.21429,-0.9138 3.21428,-0.9141 L 720,239.94259"
       id="path73"
       style="stroke-width:50;stroke-miterlimit:4;stroke-dasharray:none" />
    <path
       class="data-path"
       fill="none"
       stroke="#ffa500"
       stroke-width="2.5"
       d="m 0,425.53541 3.2142857,-0.5711 3.2142857,-0.57031 3.2142857,-0.56952 3.2142859,-0.56874 3.214286,-0.56795 3.214285,-0.56716 3.214286,-0.56637 3.214286,-0.56559 3.214285,-0.5648 3.214286,-0.56401 3.214286,-0.56323 3.214286,-0.56244 3.214285,-0.56165 L 45,417.61167 l 3.214286,-0.56007 3.214285,-0.55929 3.214286,-0.55851 3.214286,-0.55771 3.214286,-0.55692 3.214285,-0.55614 3.214286,-0.55535 3.214286,-0.55456 3.214285,-0.55377 3.214286,-0.55298 3.214286,-0.55219 3.214286,-0.5514 3.214285,-0.55062 L 90,409.84234 l 3.214286,-0.54904 3.214285,-0.54824 3.214286,-0.54746 3.214283,-0.54667 3.21429,-0.54589 3.21428,-0.54509 3.21429,-0.54431 3.21429,-0.54352 3.21428,-0.54274 3.21429,-0.54195 3.21428,-0.54117 3.21429,-0.54038 3.21428,-0.5396 3.21429,-0.53882 3.21429,-0.53804 3.21428,-0.53725 3.21429,-0.53648 3.21428,-0.5357 3.21429,-0.53492 3.21428,-0.53415 3.21429,-0.53337 3.21429,-0.5326 3.21428,-0.53182 3.21429,-0.53106 3.21428,-0.53028 3.21429,-0.52952 3.21428,-0.52875 3.21429,-0.52798 3.21429,-0.52722 3.21428,-0.52645 3.21429,-0.52569 3.21428,-0.53277 3.21429,-0.53196 3.21428,-0.53915 3.21429,-0.53832 3.21429,-0.53748 3.21428,-0.54478 3.21429,-0.5439 3.21428,-0.54303 3.21429,-0.55046 3.21428,-0.54953 3.21429,-0.55708 3.21429,-0.55613 3.21428,-0.55516 3.21429,-0.56284 3.21428,-0.56183 3.21429,-0.56084 3.21428,-0.55985 3.21429,-0.56762 3.21429,-0.56659 3.21428,-0.56555 3.21429,-0.56451 3.21428,-0.57242 3.21429,-0.57134 3.21428,-0.57027 3.21429,-0.56921 3.21429,-0.56814 3.21428,-0.57615 3.21429,-0.57505 3.21428,-0.57394 3.21429,-0.57285 3.21428,-0.57176 3.21429,-0.58519 3.21429,-0.58936 3.21428,-0.60319 3.21429,-0.61739 3.21428,-0.62163 3.21429,-0.63625 3.21428,-0.65125 3.21429,-0.66662 3.21429,-0.67095 3.21428,-0.68679 3.21429,-0.70302 3.21428,-0.71966 3.21429,-0.73673 3.21428,-0.74111 3.21429,-0.75869 3.21429,-0.7767 3.21428,-0.79518 3.21429,-0.81411 3.21428,-0.84902 3.21429,-0.86937 3.21428,-0.89022 3.21429,-0.91162 3.21429,-0.95183 3.21428,-0.97483 3.21429,-0.97882 3.21428,-1.00247 3.21429,-1.00634 3.21428,-1.03065 3.21429,-1.05558 3.21429,-1.05919 3.21428,-1.08479 3.21429,-1.08823 3.21428,-1.11455 3.21429,-1.14152 3.21428,-1.14461 3.21429,-1.1723 3.21429,-1.2007 3.21428,-1.20337 3.21429,-1.23252 3.21428,-1.26243 3.21429,-1.26457 3.21428,-1.29525 3.21429,-1.32673 3.21429,-1.32825 3.21428,-1.36056 3.21429,-1.39367 3.21428,-1.42764 3.21429,-1.42806 3.21428,-1.46288 3.21429,-1.49861 3.21429,-1.53526 3.21428,-1.53429 3.21429,-1.57185 3.21428,-1.6104 3.21429,-1.64995 3.21428,-1.69056 3.21429,-1.73223 3.21429,-1.77497 3.21428,-1.81884 3.21429,-1.86391 3.21428,-1.91018 3.21429,-2.0153 3.21428,-2.06558 3.21429,-2.11727 3.21429,-2.17042 3.21428,-2.22507 3.21429,-2.35614 3.21428,-2.41584 3.21429,-2.47733 3.21428,-2.63111 3.21429,-2.69861 3.21429,-2.87373 3.21428,-2.94836 3.21429,-3.1495 3.21428,-3.23257 3.21429,-3.46606 3.21428,-3.72683 3.21429,-4.02022 3.21429,-4.35284 3.21428,-4.73491 3.21429,-5.5204 3.21428,-6.57625 3.21429,-8.98858 3.21428,-13.3081 3.21429,-11.98266 3.21429,-10.87125 3.21428,-9.94347 3.21429,-9.15834 3.21428,-8.48607 3.21429,-7.9045 3.21428,-7.39689 3.21429,-6.95029 3.21429,-6.55461 3.21428,-6.20179 3.21429,-5.88543 3.21428,-5.60026 3.21429,-5.34196 3.21428,-5.10697 3.21429,-4.89236 3.21429,-4.69562 3.21428,-4.514673 3.21429,-4.347726 3.21428,-4.193244 3.21429,-4.049911 3.21428,-3.916584 3.21429,-3.792269 3.21429,-3.6761 3.21428,-3.567312 3.21429,-3.465236 3.21428,-3.369278 3.21429,-3.278909 3.21428,-3.193662 3.21429,-3.11312 3.21429,-3.036904 3.21428,-2.964679 3.21429,-2.896143 3.21428,-2.83102 3.21429,-2.769062 3.21428,-2.710047 3.21429,-2.653767 3.21429,-2.600036 3.21428,-2.548688 3.21429,-2.499562 3.21428,-2.452519 3.21429,-2.407428 3.21428,-2.364166 3.21429,-2.322626 3.21429,-2.282703 3.21428,-2.244302 3.21429,-2.2073395 3.21428,-2.1717304 3.21429,-2.1374016 3.21428,-2.104283 L 720,0"
       id="path75"
       style="stroke-width:50;stroke-miterlimit:4;stroke-dasharray:none" />
    <path
       class="data-path"
       fill="none"
       stroke="#008000"
       stroke-width="2.5"
       d="m 0,426.90861 3.2142857,-0.58109 3.2142857,-0.58046 3.2142857,-0.57983 3.2142859,-0.5792 3.214286,-0.57855 3.214285,-0.5779 3.214286,-0.57725 3.214286,-0.57658 3.214285,-0.57591 3.214286,-0.57524 3.214286,-0.57456 3.214286,-0.57387 3.214285,-0.57318 L 45,418.83251 l 3.214286,-0.57178 3.214285,-0.57106 3.214286,-0.57035 3.214286,-0.56962 3.214286,-0.5689 3.214285,-0.56816 3.214286,-0.56742 3.214286,-0.56669 3.214285,-0.56593 3.214286,-0.56518 3.214286,-0.56442 3.214286,-0.56366 3.214285,-0.56289 L 90,410.89433 l 3.214286,-0.56135 3.214285,-0.56057 3.214286,-0.55978 3.214283,-0.559 3.21429,-0.55821 3.21428,-0.55742 3.21429,-0.55662 3.21429,-0.55583 3.21428,-0.55502 3.21429,-0.55422 3.21428,-0.55342 3.21429,-0.5526 3.21428,-0.5518 3.21429,-0.55099 3.21429,-0.55017 3.21428,-0.54935 3.21429,-0.54854 3.21428,-0.54771 3.21429,-0.5469 3.21428,-0.54608 3.21429,-0.54525 3.21429,-0.54443 3.21428,-0.5436 3.21429,-0.54278 3.21428,-0.54195 3.21429,-0.54112 3.21428,-0.5403 3.21429,-0.53947 3.21429,-0.53864 3.21428,-0.53781 3.21429,-0.53698 3.21428,-0.54749 3.21429,-0.54646 3.21428,-0.55708 3.21429,-0.55586 3.21429,-0.55464 3.21428,-0.56536 3.21429,-0.56393 3.21428,-0.56252 3.21429,-0.57333 3.21428,-0.5717 3.21429,-0.58265 3.21429,-0.58079 3.21428,-0.57895 3.21429,-0.59 3.21428,-0.58793 3.21429,-0.5859 3.21428,-0.58388 3.21429,-0.595 3.21429,-0.59275 3.21428,-0.59055 3.21429,-0.58836 3.21428,-0.59954 3.21429,-0.59712 3.21428,-0.59474 3.21429,-0.59239 3.21429,-0.59006 3.21428,-0.6013 3.21429,-0.59875 3.21428,-0.59622 3.21429,-0.59374 3.21428,-0.5913 3.21429,-0.60426 3.21429,-0.60322 3.21428,-0.61635 3.21429,-0.62963 3.21428,-0.628 3.21429,-0.64143 3.21428,-0.65504 3.21429,-0.66881 3.21429,-0.66615 3.21428,-0.68006 3.21429,-0.69413 3.21428,-0.70835 3.21429,-0.72274 3.21428,-0.71849 3.21429,-0.73301 3.21429,-0.74767 3.21428,-0.76249 3.21429,-0.77745 3.21428,-0.81466 3.21429,-0.83005 3.21428,-0.8456 3.21429,-0.86127 3.21429,-0.90325 3.21428,-0.91929 3.21429,-0.90758 3.21428,-0.92381 3.21429,-0.91175 3.21428,-0.92818 3.21429,-0.94475 3.21429,-0.93153 3.21428,-0.94833 3.21429,-0.93478 3.21428,-0.95182 3.21429,-0.96901 3.21428,-0.95424 3.21429,-0.97171 3.21429,-0.98935 3.21428,-0.97331 3.21429,-0.99127 3.21428,-1.00941 3.21429,-0.99205 3.21428,-1.01056 3.21429,-1.02926 3.21429,-1.01053 3.21428,-1.02965 3.21429,-1.049 3.21428,-1.06858 3.21429,-1.04722 3.21428,-1.0673 3.21429,-1.08767 3.21429,-1.10833 3.21428,-1.08406 3.21429,-1.10534 3.21428,-1.12695 3.21429,-1.14889 3.21428,-1.1712 3.21429,-1.1939 3.21429,-1.21702 3.21428,-1.24057 3.21429,-1.2646 3.21428,-1.28912 3.21429,-1.38254 3.21428,-1.40781 L 495,315.618 l 3.21429,-1.46044 3.21428,-1.48795 3.21429,-1.60894 3.21428,-1.63731 3.21429,-1.66689 3.21428,-1.81507 3.21429,-1.84564 3.21429,-2.02193 3.21428,-2.05351 3.21429,-2.26739 3.21428,-2.30017 3.21429,-2.56632 3.21428,-2.88136 3.21429,-3.26053 3.21429,-3.72662 3.21428,-4.31565 3.21429,-6.08999 3.21428,-9.32905 3.21429,-25.1611 3.21428,-188.472853 h 3.21429 3.21429 3.21428 3.21429 3.21428 3.21429 3.21428 3.21429 3.21429 3.21428 3.21429 3.21428 3.21429 3.21428 3.21429 3.21429 3.21428 3.21429 3.21428 3.21429 3.21428 3.21429 3.21429 3.21428 3.21429 3.21428 3.21429 3.21428 3.21429 3.21429 3.21428 3.21429 3.21428 3.21429 3.21428 3.21429 3.21429 3.21428 3.21429 3.21428 3.21429 3.21428 3.21429 3.21429 3.21428 3.21429 3.21428 3.21429 3.21428 H 720"
       id="path77"
       style="stroke-width:50;stroke-miterlimit:4;stroke-dasharray:none" />
    <path
       class="data-path"
       fill="none"
       stroke="#ff0000"
       stroke-width="2.5"
       d="m 0,470 3.2142857,-1.28154 3.2142857,-1.28154 3.2142857,-1.28155 3.2142859,-1.28154 3.214286,-1.28154 3.214285,-1.28154 3.214286,-1.28154 3.214286,-1.28155 3.214285,-1.28154 3.214286,-1.28154 3.214286,-1.28154 3.214286,-1.28155 3.214285,-1.28154 L 45,452.05841 l 3.214286,-1.28154 3.214285,-1.28154 3.214286,-1.28155 3.214286,-1.28154 3.214286,-1.28154 3.214285,-1.28154 3.214286,-1.28154 3.214286,-1.28155 3.214285,-1.28154 3.214286,-1.28154 3.214286,-1.28154 3.214286,-1.28154 3.214285,-1.28155 L 90,434.11682 l 3.214286,-1.28154 3.214285,-1.28154 3.214286,-1.28155 3.214283,-1.28154 3.21429,-1.28154 3.21428,-1.28154 3.21429,-1.28154 3.21429,-1.28155 3.21428,-1.28154 3.21429,-1.28154 3.21428,-1.28154 3.21429,-1.28154 3.21428,-1.28155 3.21429,-1.28154 3.21429,-1.28154 3.21428,-1.28154 3.21429,-1.28154 3.21428,-1.28155 3.21429,-1.28154 3.21428,-1.28154 3.21429,-1.28154 3.21429,-1.28155 3.21428,-1.28154 3.21429,-1.28154 3.21428,-1.28154 3.21429,-1.28154 3.21428,-1.28155 3.21429,-1.28154 3.21429,-1.28154 3.21428,-1.28154 3.21429,-1.28154 3.21428,-1.28155 3.21429,-1.28154 3.21428,-1.28154 3.21429,-1.28154 3.21429,-1.28154 3.21428,-1.28155 3.21429,-1.28154 3.21428,-1.28154 3.21429,-1.28154 3.21428,-1.28155 3.21429,-1.28154 3.21429,-1.28154 3.21428,-1.28154 3.21429,-1.28154 h 3.21428 3.21429 3.21428 3.21429 3.21429 3.21428 3.21429 3.21428 3.21429 3.21428 3.21429 3.21429 3.21428 3.21429 3.21428 3.21429 3.21428 l 3.21429,-2.57466 3.21429,-2.57465 3.21428,-2.57466 3.21429,-2.57465 3.21428,-2.57466 3.21429,-2.57465 3.21428,-2.57465 3.21429,-2.57466 3.21429,-2.57465 3.21428,-2.57466 3.21429,-2.57465 3.21428,-2.57466 3.21429,-2.57465 3.21428,-2.57466 3.21429,-2.57465 3.21429,-2.57465 3.21428,-2.57466 3.21429,-2.57465 3.21428,-2.57466 3.21429,-2.57465 3.21428,-2.57466 3.21429,-2.57465 3.21429,-1.9973 h 3.21428 3.21429 3.21428 3.21429 3.21428 3.21429 3.21429 3.21428 3.21429 3.21428 3.21429 3.21428 3.21429 3.21429 3.21428 3.21429 3.21428 3.21429 3.21428 3.21429 3.21429 3.21428 3.21429 3.21428 3.21429 3.21428 3.21429 3.21429 3.21428 3.21429 3.21428 3.21429 3.21428 3.21429 3.21429 3.21428 3.21429 3.21428 3.21429 3.21428 3.21429 3.21429 3.21428 3.21429 3.21428 3.21429 3.21428 3.21429 3.21429 3.21428 3.21429 3.21428 3.21429 3.21428 3.21429 3.21429 3.21428 3.21429 3.21428 3.21429 3.21428 3.21429 3.21429 3.21428 3.21429 3.21428 3.21429 3.21428 3.21429 3.21429 3.21428 3.21429 3.21428 3.21429 3.21428 3.21429 3.21429 3.21428 3.21429 3.21428 3.21429 3.21428 3.21429 3.21429 3.21428 3.21429 3.21428 3.21429 3.21428 3.21429 3.21429 3.21428 3.21429 3.21428 3.21429 3.21428 3.21429 3.21429 3.21428 3.21429 3.21428 3.21429 3.21428 3.21429 3.21429 3.21428 3.21429 3.21428 3.21429 3.21428 H 720"
       id="path79"
       style="stroke-width:50;stroke-miterlimit:4;stroke-dasharray:none" />
    <rect
       width="720"
       height="470"
       style="fill:none;stroke-width:50;stroke-miterlimit:4;stroke-dasharray:none"
       id="rect89"
       x="0"
       y="0" />
  </g>
  <rect
     style="fill:none;fill-opacity:1;stroke:#000000;stroke-width:28.898;stroke-miterlimit:4;stroke-dasharray:none;stroke-dashoffset:28;stroke-opacity:1;paint-order:stroke fill markers;stop-color:#000000"
     id="rect4872"
     width="415.45319"
     height="415.45319"
     x="19.348795"
     y="19.348801"
     ry="37.756401"
     rx="37.756401" />
</svg>
